<svg xmlns="http://www.w3.org/2000/svg" viewBox="0.0 0.0 396.0 384.0">
<defs><clipPath id="r"><rect x="0.0" y="0.0" width="396.0" height="384.0" rx="84.5" ry="84.5"/></clipPath></defs>
<g clip-path="url(#r)">
<path d="M0 0 C130.68 0 261.36 0 396 0 C396 126.72 396 253.44 396 384 C265.32 384 134.64 384 0 384 C0 257.28 0 130.56 0 0 Z " fill="#0B1B3F" transform="translate(0,0)"/>
<path d="M0 0 C0.87 -0.01 1.74 -0.01 2.64 -0.02 C3.09 -0.01 3.09 -0.01 5.38 0.03 C6.28 0.02 7.18 0 8.11 -0.02 C8.98 -0.01 9.85 -0.01 10.75 0 C11.54 0 12.33 0.01 13.15 0.01 C16.27 0.74 17.38 2.05 19.38 4.53 C19.87 7.34 19.87 7.34 19.87 10.64 C19.88 11.89 19.89 13.14 19.9 14.43 C19.89 15.81 19.88 17.2 19.87 18.58 C19.88 20.04 19.88 21.5 19.89 22.97 C19.9 26.11 19.9 29.25 19.89 32.4 C19.88 37.37 19.89 42.34 19.91 47.31 C19.94 56.96 19.94 66.62 19.94 76.28 C19.94 88.56 19.95 100.85 19.99 113.14 C20 118.08 20 123.02 19.99 127.96 C19.98 131.04 19.99 134.11 20 137.19 C20 138.61 20 140.04 19.99 141.46 C19.98 143.41 19.99 145.35 20 147.3 C20 148.39 20 149.48 20 150.6 C20.56 154.97 22.52 157.57 25.39 160.81 C29.89 163.4 34.04 163.09 39.14 163.05 C40.23 163.06 41.31 163.06 42.43 163.07 C46.02 163.09 49.61 163.08 53.2 163.06 C55.7 163.07 58.2 163.07 60.7 163.07 C65.94 163.08 71.18 163.07 76.43 163.05 C81.8 163.03 87.17 163.03 92.54 163.05 C99.04 163.08 105.53 163.08 112.03 163.07 C114.5 163.06 116.97 163.07 119.44 163.08 C122.9 163.09 126.37 163.07 129.83 163.05 C130.84 163.06 131.85 163.07 132.89 163.07 C141.9 162.97 151.19 160.85 157.87 154.41 C163.33 147.6 165.24 140.32 164.85 131.68 C163.8 124.72 161.03 119.48 155.5 115.09 C148.72 110.34 142.93 109.09 134.83 109.16 C133.9 109.16 132.97 109.15 132.01 109.15 C130 109.14 127.99 109.14 125.98 109.15 C122.8 109.16 119.62 109.15 116.43 109.13 C107.39 109.09 98.35 109.09 89.31 109.1 C83.77 109.1 78.23 109.08 72.69 109.05 C69.56 109.04 66.42 109.05 63.29 109.06 C61.37 109.05 59.45 109.04 57.53 109.03 C56.66 109.04 55.79 109.05 54.89 109.06 C48.99 108.99 48.99 108.99 45.83 106.64 C44.12 104.17 43.87 102.86 43.88 99.87 C43.88 99 43.88 98.12 43.88 97.22 C43.9 96.31 43.92 95.4 43.94 94.47 C43.93 93.56 43.92 92.65 43.92 91.71 C43.98 85.03 43.98 85.03 45.66 82.92 C48.66 80.49 52.49 81.13 56.19 81.16 C57.09 81.16 57.99 81.15 58.92 81.15 C60.88 81.14 62.84 81.14 64.79 81.15 C67.9 81.16 71.01 81.15 74.12 81.13 C82.95 81.09 91.79 81.09 100.62 81.1 C106.03 81.1 111.43 81.08 116.84 81.05 C119.89 81.04 122.94 81.05 125.99 81.06 C145.68 81.02 145.68 81.02 153.78 74.64 C160.29 66.5 162.09 60.8 161.84 50.27 C161 43.54 158.27 38.97 153.11 34.62 C148.24 31.21 144.25 29.42 138.26 29.39 C137.86 29.39 137.86 29.39 135.81 29.38 C134.93 29.38 134.05 29.37 133.14 29.37 C132.21 29.37 131.27 29.36 130.31 29.36 C128.29 29.35 126.26 29.34 124.23 29.33 C121.03 29.32 117.83 29.3 114.63 29.28 C105.53 29.22 96.42 29.16 87.32 29.13 C81.75 29.11 76.19 29.07 70.62 29.03 C68.49 29.01 66.37 29.01 64.24 29 C61.28 29 58.32 28.98 55.35 28.95 C54.47 28.95 53.58 28.95 52.67 28.96 C50.23 28.92 50.23 28.92 46.38 28.53 C43.39 24.06 44.05 19.79 44.06 14.53 C44.05 13.52 44.03 12.51 44.01 11.47 C44.01 10.5 44.01 9.53 44.01 8.53 C44.01 7.64 44.01 6.76 44 5.84 C44.46 3.01 45.16 2.3 47.38 0.53 C50.45 0.24 53.31 0.13 56.39 0.16 C57.31 0.16 58.23 0.15 59.18 0.15 C62.24 0.14 65.29 0.15 68.35 0.17 C70.48 0.17 72.6 0.17 74.73 0.17 C79.19 0.17 83.66 0.18 88.12 0.2 C93.83 0.22 99.53 0.22 105.24 0.21 C109.64 0.21 114.03 0.21 118.43 0.22 C120.53 0.23 122.63 0.23 124.74 0.23 C127.69 0.23 130.64 0.24 133.59 0.26 C134.45 0.25 135.31 0.25 136.2 0.25 C151.1 0.38 165.5 6.55 176.19 16.98 C187.78 30.51 191.64 44.98 190.38 62.53 C189.43 67.04 188.06 71.25 186.38 75.53 C186.23 75.9 186.23 75.9 185.5 77.77 C182.83 83.73 178.56 88.58 174.38 93.53 C175.22 94.48 176.07 95.43 176.94 96.41 C188.9 110.52 194.3 124.1 192.81 142.66 C192.28 147.38 191.32 151.23 189.38 155.53 C188.97 156.47 188.57 157.42 188.16 158.39 C181.83 172.22 171.99 181.22 158.31 187.34 C157.64 187.65 156.97 187.95 156.27 188.26 C155.61 188.54 154.96 188.82 154.28 189.11 C153.69 189.36 153.11 189.61 152.51 189.87 C145.82 191.94 138.84 191.69 131.91 191.69 C130.77 191.7 129.64 191.7 128.46 191.71 C124.72 191.72 120.98 191.73 117.23 191.73 C114.62 191.74 112.01 191.75 109.4 191.75 C104.62 191.76 99.85 191.77 95.08 191.77 C88.07 191.77 81.07 191.79 74.07 191.82 C67.98 191.85 61.9 191.85 55.81 191.85 C53.23 191.86 50.65 191.87 48.07 191.88 C44.46 191.9 40.84 191.89 37.23 191.89 C36.17 191.9 35.12 191.91 34.03 191.92 C21.75 191.85 12.25 188.24 3.25 179.91 C-8.13 167.97 -8.93 154.42 -8.92 138.67 C-8.92 137.21 -8.93 135.74 -8.94 134.28 C-8.95 130.34 -8.96 126.4 -8.96 122.46 C-8.96 120 -8.97 117.53 -8.97 115.07 C-8.99 106.47 -9 97.86 -9 89.26 C-8.99 81.25 -9.02 73.24 -9.05 65.22 C-9.07 58.33 -9.08 51.44 -9.08 44.55 C-9.08 40.43 -9.09 36.32 -9.11 32.21 C-9.13 28.35 -9.13 24.5 -9.11 20.64 C-9.11 19.22 -9.12 17.8 -9.13 16.39 C-9.14 14.46 -9.13 12.53 -9.12 10.59 C-9.12 9.51 -9.12 8.43 -9.12 7.32 C-8.2 2.13 -5.08 0.03 0 0 Z " fill="#F8F8FA" transform="translate(109.625,97.46875)"/>
<path d="M0 0 C1.3 0 2.6 0 3.94 0 C5.36 0.02 6.78 0.03 8.2 0.05 C9.66 0.05 11.11 0.06 12.56 0.06 C16.39 0.07 20.21 0.1 24.03 0.13 C27.93 0.17 31.83 0.18 35.73 0.19 C43.39 0.23 51.04 0.28 58.69 0.34 C59.19 1.61 59.68 2.87 60.17 4.14 C60.44 4.85 60.72 5.55 61 6.28 C61.93 9.04 62.09 11.5 62.07 14.4 C62.07 14.88 62.07 14.88 62.09 17.31 C61.6 21.01 60.21 23.94 58.69 27.34 C50.42 27.43 42.14 27.5 33.87 27.55 C30.02 27.57 26.18 27.6 22.34 27.64 C18.63 27.69 14.92 27.71 11.21 27.72 C9.8 27.73 8.38 27.74 6.97 27.76 C4.99 27.79 3 27.79 1.02 27.79 C-0.11 27.8 -1.23 27.81 -2.4 27.82 C-5.96 27.23 -7.12 26.16 -9.31 23.34 C-9.81 21.1 -9.81 21.1 -9.8 18.68 C-9.8 17.8 -9.8 16.93 -9.81 16.03 C-9.79 15.12 -9.77 14.21 -9.74 13.28 C-9.75 12.37 -9.76 11.46 -9.77 10.52 C-9.7 3.9 -9.7 3.9 -8.18 1.73 C-5.45 -0.3 -3.37 -0.02 0 0 Z " fill="#1CA2FA" transform="translate(163.307373046875,178.659423828125)"/>
<path d="M0 0 C2.31 0.33 4.62 0.66 7 1 C6.83 1.26 6.83 1.26 5.98 2.55 C4.62 5.94 5.04 8.63 5.38 12.25 C5.49 13.51 5.6 14.78 5.71 16.08 C5.81 17.04 5.9 18.01 6 19 C6.66 17.02 7.32 15.04 8 13 C10.56 15.06 10.56 15.06 13 18 C12.67 20.31 12.34 22.62 12 25 C18.27 25.33 24.54 25.66 31 26 C31 26.33 31 26.66 31 27 C20.77 27 10.54 27 0 27 C1 23 1 23 2 20 C2.45 13 2.06 6.7 0 0 Z " fill="#BBE2EC" transform="translate(222,179)"/>
<path d="M0 0 C2.31 0.33 4.62 0.66 7 1 C6.66 1.57 6.32 2.14 5.97 2.73 C4.85 5.34 4.99 6.5 5.5 9.25 C6.33 15.2 5.39 19.92 2 25 C1.34 24.67 0.68 24.34 0 24 C0.32 23.46 0.65 22.92 0.98 22.36 C3.93 15.52 2.12 6.88 0 0 Z " fill="#87EFFC" transform="translate(222,179)"/>
<path d="M0 0 C0.52 0 0.52 0 3.16 0.02 C4.28 0.02 5.41 0.02 6.57 0.03 C7.75 0.03 8.93 0.04 10.15 0.05 C11.34 0.06 12.53 0.06 13.75 0.06 C16.7 0.08 19.65 0.09 22.59 0.11 C22.59 1.1 22.59 2.09 22.59 3.11 C19.01 3.17 15.43 3.21 11.84 3.24 C10.83 3.26 9.81 3.27 8.76 3.29 C7.78 3.3 6.8 3.3 5.79 3.31 C5.34 3.31 5.34 3.31 3.07 3.34 C0.45 3.1 -1.17 2.44 -3.41 1.11 C-2.41 0.11 -2.41 0.11 0 0 Z " fill="#1ED4F5" transform="translate(199.408447265625,178.886474609375)"/>
</g>
</svg>
